<mxfile host="www.draw.io" modified="2020-02-15T15:06:29.278Z" agent="Mozilla/5.0 (Macintosh; Intel Mac OS X 10_14_6) AppleWebKit/537.36 (KHTML, like Gecko) Chrome/79.0.3945.130 Safari/537.36" etag="1tcyxbju_pqfKOVVNZid" version="12.7.0" type="github" pages="2">
  <diagram id="C5RBs43oDa-KdzZeNtuy" name="Main">
    <mxGraphModel dx="1186" dy="692" grid="1" gridSize="10" guides="1" tooltips="1" connect="1" arrows="1" fold="1" page="1" pageScale="1" pageWidth="827" pageHeight="1169" math="0" shadow="0">
      <root>
        <mxCell id="WIyWlLk6GJQsqaUBKTNV-0"/>
        <mxCell id="WIyWlLk6GJQsqaUBKTNV-1" parent="WIyWlLk6GJQsqaUBKTNV-0"/>
        <mxCell id="WIyWlLk6GJQsqaUBKTNV-2" value="" style="rounded=0;html=1;jettySize=auto;orthogonalLoop=1;fontSize=11;endArrow=block;endFill=0;endSize=8;strokeWidth=1;shadow=0;labelBackgroundColor=none;edgeStyle=orthogonalEdgeStyle;" parent="WIyWlLk6GJQsqaUBKTNV-1" source="WIyWlLk6GJQsqaUBKTNV-3" edge="1">
          <mxGeometry relative="1" as="geometry">
            <mxPoint x="400" y="200" as="targetPoint"/>
          </mxGeometry>
        </mxCell>
        <mxCell id="WIyWlLk6GJQsqaUBKTNV-3" value="AE Send XML and PDF to Switch" style="rounded=1;whiteSpace=wrap;html=1;fontSize=12;glass=0;strokeWidth=1;shadow=0;" parent="WIyWlLk6GJQsqaUBKTNV-1" vertex="1">
          <mxGeometry x="340" y="110" width="120" height="40" as="geometry"/>
        </mxCell>
        <mxCell id="WIyWlLk6GJQsqaUBKTNV-7" value="Notify Customer" style="rounded=1;whiteSpace=wrap;html=1;fontSize=12;glass=0;strokeWidth=1;shadow=0;" parent="WIyWlLk6GJQsqaUBKTNV-1" vertex="1">
          <mxGeometry x="590" y="200" width="120" height="40" as="geometry"/>
        </mxCell>
        <mxCell id="uWSer1AJ0ImSBiUL0q7h-3" value="" style="edgeStyle=orthogonalEdgeStyle;rounded=0;orthogonalLoop=1;jettySize=auto;html=1;" parent="WIyWlLk6GJQsqaUBKTNV-1" source="WIyWlLk6GJQsqaUBKTNV-11" target="uWSer1AJ0ImSBiUL0q7h-2" edge="1">
          <mxGeometry relative="1" as="geometry"/>
        </mxCell>
        <mxCell id="uWSer1AJ0ImSBiUL0q7h-4" value="" style="edgeStyle=orthogonalEdgeStyle;rounded=0;orthogonalLoop=1;jettySize=auto;html=1;" parent="WIyWlLk6GJQsqaUBKTNV-1" source="WIyWlLk6GJQsqaUBKTNV-11" target="WIyWlLk6GJQsqaUBKTNV-7" edge="1">
          <mxGeometry relative="1" as="geometry"/>
        </mxCell>
        <mxCell id="Xxefu0JottPl1oZk4XYx-6" value="" style="edgeStyle=orthogonalEdgeStyle;rounded=0;orthogonalLoop=1;jettySize=auto;html=1;strokeColor=#000000;fontColor=#0000FF;fillColor=#eeeeee;" parent="WIyWlLk6GJQsqaUBKTNV-1" source="WIyWlLk6GJQsqaUBKTNV-11" target="Xxefu0JottPl1oZk4XYx-5" edge="1">
          <mxGeometry relative="1" as="geometry"/>
        </mxCell>
        <mxCell id="WIyWlLk6GJQsqaUBKTNV-11" value="Switch read XML and Send to Customer" style="rounded=1;whiteSpace=wrap;html=1;fontSize=12;glass=0;strokeWidth=1;shadow=0;" parent="WIyWlLk6GJQsqaUBKTNV-1" vertex="1">
          <mxGeometry x="340" y="200" width="120" height="40" as="geometry"/>
        </mxCell>
        <UserObject label="Notify AE Link to Approval Page" tooltip="" id="Xxefu0JottPl1oZk4XYx-5">
          <mxCell style="rounded=1;whiteSpace=wrap;html=1;fontSize=12;glass=0;strokeWidth=1;shadow=0;" parent="WIyWlLk6GJQsqaUBKTNV-1" vertex="1">
            <mxGeometry x="130" y="200" width="120" height="40" as="geometry"/>
          </mxCell>
        </UserObject>
        <mxCell id="WIyWlLk6GJQsqaUBKTNV-12" value="Sent feedback to AE" style="rounded=1;whiteSpace=wrap;html=1;fontSize=12;glass=0;strokeWidth=1;shadow=0;" parent="WIyWlLk6GJQsqaUBKTNV-1" vertex="1">
          <mxGeometry x="130" y="315" width="120" height="40" as="geometry"/>
        </mxCell>
        <mxCell id="uWSer1AJ0ImSBiUL0q7h-5" value="Yes" style="edgeStyle=orthogonalEdgeStyle;rounded=0;orthogonalLoop=1;jettySize=auto;html=1;fillColor=#d5e8d4;strokeColor=#82b366;fontColor=#00CC00;" parent="WIyWlLk6GJQsqaUBKTNV-1" source="uWSer1AJ0ImSBiUL0q7h-2" target="WIyWlLk6GJQsqaUBKTNV-12" edge="1">
          <mxGeometry relative="1" as="geometry"/>
        </mxCell>
        <mxCell id="uWSer1AJ0ImSBiUL0q7h-9" value="No" style="edgeStyle=orthogonalEdgeStyle;rounded=0;orthogonalLoop=1;jettySize=auto;html=1;fillColor=#f8cecc;strokeColor=#FF3333;fontColor=#FF3333;" parent="WIyWlLk6GJQsqaUBKTNV-1" source="uWSer1AJ0ImSBiUL0q7h-2" target="uWSer1AJ0ImSBiUL0q7h-8" edge="1">
          <mxGeometry relative="1" as="geometry"/>
        </mxCell>
        <mxCell id="uWSer1AJ0ImSBiUL0q7h-12" value="" style="edgeStyle=orthogonalEdgeStyle;rounded=0;orthogonalLoop=1;jettySize=auto;html=1;fillColor=#dae8fc;strokeColor=#3333FF;" parent="WIyWlLk6GJQsqaUBKTNV-1" source="uWSer1AJ0ImSBiUL0q7h-2" target="uWSer1AJ0ImSBiUL0q7h-11" edge="1">
          <mxGeometry relative="1" as="geometry"/>
        </mxCell>
        <mxCell id="Xxefu0JottPl1oZk4XYx-1" value="???? every 24h?" style="text;html=1;align=center;verticalAlign=middle;resizable=0;points=[];labelBackgroundColor=#ffffff;fontColor=#0000FF;" parent="uWSer1AJ0ImSBiUL0q7h-12" vertex="1" connectable="0">
          <mxGeometry x="-0.1" relative="1" as="geometry">
            <mxPoint x="6" as="offset"/>
          </mxGeometry>
        </mxCell>
        <mxCell id="uWSer1AJ0ImSBiUL0q7h-2" value="Customer Approved?" style="rhombus;whiteSpace=wrap;html=1;" parent="WIyWlLk6GJQsqaUBKTNV-1" vertex="1">
          <mxGeometry x="330" y="290" width="140" height="90" as="geometry"/>
        </mxCell>
        <mxCell id="uWSer1AJ0ImSBiUL0q7h-8" value="Sent feedback to AE" style="rounded=1;whiteSpace=wrap;html=1;fontSize=12;glass=0;strokeWidth=1;shadow=0;" parent="WIyWlLk6GJQsqaUBKTNV-1" vertex="1">
          <mxGeometry x="340" y="450" width="120" height="40" as="geometry"/>
        </mxCell>
        <UserObject label="Reminder (click)" link="data:page/id,1A8sh7H0N0nS8Z2gxnAN" id="uWSer1AJ0ImSBiUL0q7h-11">
          <mxCell style="rounded=1;whiteSpace=wrap;html=1;fontSize=12;glass=0;strokeWidth=1;shadow=0;fillColor=#d5e8d4;strokeColor=#82b366;" parent="WIyWlLk6GJQsqaUBKTNV-1" vertex="1">
            <mxGeometry x="590" y="315" width="120" height="40" as="geometry"/>
          </mxCell>
        </UserObject>
        <mxCell id="ayAcpowjnV3twmnBQ4KI-8" value="Proof Status&lt;br&gt;0 = Waiting Approval&lt;br&gt;1 = Approved&lt;br&gt;2 = Disapproved" style="whiteSpace=wrap;html=1;aspect=fixed;fillColor=#fad7ac;strokeColor=#b46504;" parent="WIyWlLk6GJQsqaUBKTNV-1" vertex="1">
          <mxGeometry x="580" y="40" width="130" height="130" as="geometry"/>
        </mxCell>
        <mxCell id="1p9PQhOa2NiQaqaIUmzk-0" value="&lt;span style=&quot;white-space: normal&quot;&gt;Change&amp;nbsp;&lt;/span&gt;&lt;br style=&quot;white-space: normal&quot;&gt;&lt;span style=&quot;white-space: normal&quot;&gt;Proof Status to 1&lt;/span&gt;" style="rounded=1;whiteSpace=wrap;html=1;fillColor=#dae8fc;strokeColor=#6c8ebf;" vertex="1" parent="WIyWlLk6GJQsqaUBKTNV-1">
          <mxGeometry x="130" y="360" width="120" height="60" as="geometry"/>
        </mxCell>
        <mxCell id="1p9PQhOa2NiQaqaIUmzk-1" value="&lt;span style=&quot;white-space: normal&quot;&gt;Change&amp;nbsp;&lt;/span&gt;&lt;br style=&quot;white-space: normal&quot;&gt;&lt;span style=&quot;white-space: normal&quot;&gt;Proof Status to 2&lt;/span&gt;" style="rounded=1;whiteSpace=wrap;html=1;fillColor=#dae8fc;strokeColor=#6c8ebf;" vertex="1" parent="WIyWlLk6GJQsqaUBKTNV-1">
          <mxGeometry x="340" y="500" width="120" height="60" as="geometry"/>
        </mxCell>
        <mxCell id="1p9PQhOa2NiQaqaIUmzk-2" value="&lt;span style=&quot;white-space: normal&quot;&gt;Change&amp;nbsp;&lt;/span&gt;&lt;br style=&quot;white-space: normal&quot;&gt;&lt;span style=&quot;white-space: normal&quot;&gt;Proof Status to 0&lt;/span&gt;" style="rounded=1;whiteSpace=wrap;html=1;fillColor=#dae8fc;strokeColor=#6c8ebf;" vertex="1" parent="WIyWlLk6GJQsqaUBKTNV-1">
          <mxGeometry x="130" y="130" width="120" height="60" as="geometry"/>
        </mxCell>
        <mxCell id="1p9PQhOa2NiQaqaIUmzk-4" value="Switch generate a URL for every new arrive file, to avoid this we can just save the first generate URL" style="rounded=1;whiteSpace=wrap;html=1;fillColor=#e51400;strokeColor=#B20000;fontColor=#ffffff;" vertex="1" parent="WIyWlLk6GJQsqaUBKTNV-1">
          <mxGeometry x="130" y="40" width="120" height="80" as="geometry"/>
        </mxCell>
        <mxCell id="1p9PQhOa2NiQaqaIUmzk-6" value="&lt;span style=&quot;color: rgb(255 , 255 , 255) ; white-space: normal&quot;&gt;Based on due date?&lt;/span&gt;&lt;br style=&quot;color: rgb(255 , 255 , 255) ; white-space: normal&quot;&gt;&lt;span style=&quot;color: rgb(255 , 255 , 255) ; white-space: normal&quot;&gt;Everyday at 13:00?&lt;/span&gt;" style="rounded=1;whiteSpace=wrap;html=1;fillColor=#e51400;strokeColor=#B20000;fontColor=#ffffff;" vertex="1" parent="WIyWlLk6GJQsqaUBKTNV-1">
          <mxGeometry x="590" y="360" width="120" height="60" as="geometry"/>
        </mxCell>
      </root>
    </mxGraphModel>
  </diagram>
  <diagram id="1A8sh7H0N0nS8Z2gxnAN" name="Reminder">
    <mxGraphModel dx="1186" dy="692" grid="1" gridSize="10" guides="1" tooltips="1" connect="1" arrows="1" fold="1" page="1" pageScale="1" pageWidth="850" pageHeight="1100" math="0" shadow="0">
      <root>
        <mxCell id="VVDg7964WISqAHS9_tG6-0"/>
        <mxCell id="VVDg7964WISqAHS9_tG6-1" parent="VVDg7964WISqAHS9_tG6-0"/>
        <mxCell id="SgDweYhR4QqB-MHrO8yk-2" value="" style="edgeStyle=orthogonalEdgeStyle;rounded=0;orthogonalLoop=1;jettySize=auto;html=1;strokeColor=#000000;fontColor=#0000FF;" parent="VVDg7964WISqAHS9_tG6-1" source="SgDweYhR4QqB-MHrO8yk-0" target="SgDweYhR4QqB-MHrO8yk-1" edge="1">
          <mxGeometry relative="1" as="geometry"/>
        </mxCell>
        <mxCell id="SgDweYhR4QqB-MHrO8yk-0" value="Trigger" style="rounded=1;whiteSpace=wrap;html=1;fontSize=12;glass=0;strokeWidth=1;shadow=0;fillColor=#d5e8d4;strokeColor=#82b366;" parent="VVDg7964WISqAHS9_tG6-1" vertex="1">
          <mxGeometry x="100" y="220" width="120" height="40" as="geometry"/>
        </mxCell>
        <mxCell id="SgDweYhR4QqB-MHrO8yk-6" value="" style="edgeStyle=orthogonalEdgeStyle;rounded=0;orthogonalLoop=1;jettySize=auto;html=1;strokeColor=#000000;fontColor=#000000;" parent="VVDg7964WISqAHS9_tG6-1" source="SgDweYhR4QqB-MHrO8yk-1" target="SgDweYhR4QqB-MHrO8yk-5" edge="1">
          <mxGeometry relative="1" as="geometry"/>
        </mxCell>
        <mxCell id="SgDweYhR4QqB-MHrO8yk-1" value="AE send&amp;nbsp; to Switch" style="rounded=1;whiteSpace=wrap;html=1;fontSize=12;glass=0;strokeWidth=1;shadow=0;" parent="VVDg7964WISqAHS9_tG6-1" vertex="1">
          <mxGeometry x="280" y="220" width="120" height="40" as="geometry"/>
        </mxCell>
        <mxCell id="SgDweYhR4QqB-MHrO8yk-5" value="Switch Notify Customer" style="rounded=1;whiteSpace=wrap;html=1;fontSize=12;glass=0;strokeWidth=1;shadow=0;" parent="VVDg7964WISqAHS9_tG6-1" vertex="1">
          <mxGeometry x="450" y="220" width="120" height="40" as="geometry"/>
        </mxCell>
        <mxCell id="SgDweYhR4QqB-MHrO8yk-4" value="AE Send:&lt;br&gt;URL&lt;br&gt;JOB&lt;br&gt;EMAIL" style="rounded=0;whiteSpace=wrap;html=1;fillColor=#dae8fc;strokeColor=#6c8ebf;" parent="VVDg7964WISqAHS9_tG6-1" vertex="1">
          <mxGeometry x="280" y="270" width="120" height="60" as="geometry"/>
        </mxCell>
        <mxCell id="s4WEIWqWkLJPz_RdzE52-0" value="How get these informations?" style="rounded=1;whiteSpace=wrap;html=1;fillColor=#e51400;strokeColor=#B20000;fontColor=#ffffff;" vertex="1" parent="VVDg7964WISqAHS9_tG6-1">
          <mxGeometry x="280" y="340" width="120" height="60" as="geometry"/>
        </mxCell>
      </root>
    </mxGraphModel>
  </diagram>
</mxfile>
